<?xml version="1.0"?>
<svg xmlns="http://www.w3.org/2000/svg" height="512px" viewBox="0 -53 512 512" width="512px"><path d="m207.964844 186.6875c-4.085938-.691406-7.957032 2.054688-8.648438 6.136719-3.179687 18.714843 3.046875 37.765625 16.660156 50.960937 11.152344 10.8125 25.589844 16.191406 40.015626 16.1875 15.023437 0 30.035156-5.835937 41.292968-17.449218 22.066406-22.761719 21.503906-59.238282-1.261718-81.304688-22.765626-22.070312-59.238282-21.503906-81.308594 1.257812-2.882813 2.976563-2.808594 7.722657.164062 10.605469 2.976563 2.886719 7.726563 2.808594 10.605469-.164062 16.3125-16.824219 43.273437-17.242188 60.097656-.933594 16.824219 16.3125 17.242188 43.273437.933594 60.097656-16.3125 16.828125-43.273437 17.246094-60.097656.933594-10.0625-9.753906-14.664063-23.839844-12.316407-37.679687.695313-4.082032-2.050781-7.953126-6.136718-8.648438zm0 0" fill="#27ae60"/><path d="m512 202.5c0-31.585938-43.714844-58.78125-119.929688-74.613281-40.582031-8.429688-87.632812-12.886719-136.070312-12.886719-4.191406 0-8.363281.035156-12.519531.101562 21.472656-18.644531 43.183593-35.246093 64.203125-49.035156 56.015625-36.746094 102.621094-50.089844 118.726562-33.976562 11.859375 11.855468 8.054688 40.273437-10.4375 77.964844-1.824218 3.71875-.289062 8.210937 3.429688 10.035156 3.722656 1.824218 8.214844.289062 10.039062-3.429688 22.125-45.101562 24.746094-78.011718 7.578125-95.179687-22.332031-22.335938-72.472656-10.65625-137.5625 32.042969-26.011719 17.0625-53.019531 38.289062-79.355469 62.296874-40.984374 1.882813-79.605468 6.976563-112.980468 14.902344-3.117188-5.378906-6.023438-10.683594-8.695313-15.894531-20.292969-39.558594-25.089843-70.488281-12.835937-82.742187 7.722656-7.722657 21.308594-7.652344 33.449218-5.449219-.347656 1.902343-.539062 3.859375-.539062 5.863281 0 17.921875 14.578125 32.5 32.5 32.5 11.386719 0 21.417969-5.890625 27.222656-14.78125 16.046875 8.921875 32.957032 19.925781 50.371094 32.789062 1.339844.988282 2.898438 1.464844 4.449219 1.464844 2.296875 0 4.566406-1.050781 6.035156-3.042968 2.464844-3.332032 1.757813-8.027344-1.574219-10.488282-18.714844-13.824218-36.921875-25.597656-54.179687-35.042968.117187-1.117188.175781-2.25.175781-3.398438 0-17.921875-14.578125-32.5-32.5-32.5-10.425781 0-19.714844 4.941406-25.664062 12.597656-22.644532-4.871094-39.574219-1.898437-50.355469 8.882813-9.378907 9.382812-12.859375 23.558593-10.335938 42.140625 2.226563 16.429687 9.101563 35.960937 20.433594 58.054687 2.179687 4.25 4.507813 8.558594 6.972656 12.914063-4.820312 1.339844-9.515625 2.738281-14.0625 4.203125-23.632812 7.609375-42.308593 16.558593-55.5 26.601562-14.921875 11.355469-22.488281 23.839844-22.488281 37.105469 0 23.5625 23.800781 44.519531 68.824219 60.601562 1.453125.519532 2.929687 1.035157 4.421875 1.539063.800781.273437 1.613281.402344 2.410156.402344 3.125 0 6.042969-1.96875 7.101562-5.089844 1.332032-3.925781-.765624-8.183594-4.6875-9.515625-1.417968-.480469-2.816406-.96875-4.199218-1.460938-37.414063-13.363281-58.871094-30.304687-58.871094-46.476562 0-17.324219 25.265625-35.804688 67.582031-49.429688 5.578125-1.792968 11.382813-3.492187 17.386719-5.089843 10.921875 17.722656 23.945312 36.070312 38.675781 54.535156-14.125 17.714844-26.746093 35.386719-37.484375 52.601563-21.667968 34.734374-34.316406 65.316406-36.835937 88.910156-11.105469 5.175781-18.824219 16.4375-18.824219 29.472656 0 17.921875 14.578125 32.5 32.5 32.5 9.894531 0 18.765625-4.449219 24.730469-11.445312 1.042969.050781 2.105469.082031 3.1875.082031 31.523437 0 78.609375-21.527344 131.085937-60.207031 3.332032-2.457032 4.042969-7.152344 1.585938-10.488282-2.457032-3.332031-7.152344-4.042968-10.488282-1.585937-47.160156 34.761719-90.175781 55.425781-118.167968 57.167969.367187-1.953126.566406-3.964844.566406-6.019532 0-17.308594-13.59375-31.492187-30.664062-32.445312 5.171874-32.457032 30.421874-78.488282 68.503906-126.664063 14.023437 16.785157 29.382812 33.574219 45.789062 49.980469 47.472656 47.472656 98.148438 86.199219 142.699219 109.050781 22.089844 11.332031 41.621094 18.207031 58.050781 20.433594 3.910156.53125 7.625.796875 11.140625.796875 13.195313 0 23.59375-3.726562 31-11.132812 22.335938-22.335938 10.65625-72.476563-32.042969-137.566407-.683593-1.039062-1.367187-2.089843-2.054687-3.144531-4.363281-6.691406-8.875-13.609375-14.292969-20.347656-41.449218-51.550782-70.082031-77.460938-71.28125-78.539063-3.078125-2.769531-7.816406-2.519531-10.589844.5625-2.769531 3.078125-2.519531 7.816407.558594 10.589844.285156.257813 29.015625 26.285156 69.625 76.789063 4.949219 6.152343 9.253906 12.753906 13.414063 19.140624.695312 1.066407 1.386719 2.125 2.078125 3.179688 36.75 56.015625 50.085937 102.621094 33.980468 118.726562-12.253906 12.253907-43.1875 7.453126-82.738281-12.832031-43.199219-22.160156-92.542969-59.914062-138.941406-106.3125-16.84375-16.84375-32.539063-34.074219-46.769531-51.257812 14.171875-17.109375 29.867187-34.367188 46.769531-51.273438 7.085937-7.085937 14.265625-13.972656 21.5-20.664062 9.800781-.378907 19.734375-.574219 29.765625-.574219 47.429688 0 93.425781 4.347656 133.019531 12.574219 65.59375 13.621093 107.980469 37.148437 107.980469 59.925781 0 8.617188-6.160156 16.34375-12.996094 22.265625-5.964844-7.183594-14.957031-11.765625-25.003906-11.765625-17.921875 0-32.5 14.578125-32.5 32.5s14.578125 32.5 32.5 32.5 32.5-14.578125 32.5-32.5c0-2.359375-.257812-4.660156-.738281-6.878906 14.082031-11.082032 21.238281-23.214844 21.238281-36.121094zm-361-187.5c9.648438 0 17.5 7.851562 17.5 17.5s-7.851562 17.5-17.5 17.5-17.5-7.851562-17.5-17.5 7.851562-17.5 17.5-17.5zm-55.5 358.5c0 9.648438-7.851562 17.5-17.5 17.5s-17.5-7.851562-17.5-17.5c0-8.070312 5.503906-14.867188 12.945312-16.878906.050782-.011719.101563-.023438.152344-.035156 1.410156-.367188 2.878906-.585938 4.402344-.585938 9.648438 0 17.5 7.851562 17.5 17.5zm98.628906-232.871094c-16.378906 16.378906-31.738281 33.15625-45.789062 49.984375-12.398438-15.699219-23.503906-31.277343-33.046875-46.394531 26.472656-5.984375 56.222656-10.179688 87.796875-12.390625-3 2.90625-5.992188 5.832031-8.960938 8.800781zm264.871094 122.371094c-9.648438 0-17.5-7.851562-17.5-17.5s7.851562-17.5 17.5-17.5 17.5 7.851562 17.5 17.5-7.851562 17.5-17.5 17.5zm0 0" fill="#27ae60"/></svg>
