<?xml version="1.0" encoding="iso-8859-1"?>
<!-- Generator: Adobe Illustrator 19.0.0, SVG Export Plug-In . SVG Version: 6.00 Build 0)  -->
<svg xmlns="http://www.w3.org/2000/svg" xmlns:xlink="http://www.w3.org/1999/xlink" version="1.1" id="Layer_1" x="0px" y="0px" viewBox="0 0 512 512" style="enable-background:new 0 0 512 512;" xml:space="preserve" width="512px" height="512px">
<g>
	<g>
		<g>
			<path d="M76.8,409.6c-4.71,0-8.533,3.823-8.533,8.533s3.823,8.533,8.533,8.533h34.133c4.71,0,8.533-3.823,8.533-8.533     s-3.823-8.533-8.533-8.533H76.8z" fill="#27ae60"/>
			<path d="M332.8,273.067H39.526C17.732,273.067,0,292.207,0,315.733v153.6C0,492.86,17.732,512,39.526,512h207.488     c22.972,0,43.119-19.934,43.119-42.709v-93.858c-0.026-4.702-3.84-8.499-8.533-8.499h-0.043c-4.71,0.026-8.516,3.866-8.491,8.576     v93.824c0,14.421-14.003,25.6-26.052,25.6H39.526c-12.382,0-22.46-11.486-22.46-25.6v-153.6c0-14.114,10.078-25.6,22.46-25.6     h272.768l-53.367,53.717c-3.319,3.345-3.302,8.747,0.043,12.066c3.345,3.328,8.747,3.311,12.066-0.034l67.814-68.267     c2.432-2.449,3.149-6.11,1.826-9.293C339.362,275.14,336.247,273.067,332.8,273.067z" fill="#27ae60"/>
			<path d="M187.733,366.933c0-4.71-3.823-8.533-8.533-8.533H76.8c-4.71,0-8.533,3.823-8.533,8.533s3.823,8.533,8.533,8.533h102.4     C183.91,375.467,187.733,371.644,187.733,366.933z" fill="#27ae60"/>
			<path d="M8.866,100.292c1.63,16.401,8.755,30.839,9.096,31.522c7.74,15.471,19.43,38.852,58.837,38.852     s51.098-23.381,58.829-38.852c0.35-0.683,7.484-15.121,9.105-31.522c5.282-2.901,8.866-8.525,8.866-14.959V68.267     c0-6.306-3.439-11.819-8.533-14.771V51.2c0-28.237-22.963-51.2-51.2-51.2H59.733c-28.237,0-51.2,22.963-51.2,51.2v2.295     C3.439,56.448,0,61.961,0,68.267v17.067C0,91.767,3.584,97.391,8.866,100.292z M17.067,68.267c4.71,0,8.533-3.823,8.533-8.533     V51.2c0-18.825,15.309-34.133,34.133-34.133h34.133C112.691,17.067,128,32.375,128,51.2v8.533c0,4.71,3.823,8.533,8.533,8.533     v17.067c-4.71,0-8.533,3.823-8.533,8.533c0,14.763-7.561,30.174-7.637,30.319C111.488,141.952,103.646,153.6,76.8,153.6     c-26.854,0-34.688-11.648-43.563-29.406c-0.077-0.154-7.637-15.565-7.637-30.327c0-4.71-3.823-8.533-8.533-8.533V68.267z" fill="#27ae60"/>
			<path d="M93.867,85.333h8.533c4.71,0,8.533-3.823,8.533-8.533s-3.823-8.533-8.533-8.533h-8.533c-4.71,0-8.533,3.823-8.533,8.533     S89.156,85.333,93.867,85.333z" fill="#27ae60"/>
			<path d="M51.2,85.333h8.533c4.71,0,8.533-3.823,8.533-8.533s-3.823-8.533-8.533-8.533H51.2c-4.71,0-8.533,3.823-8.533,8.533     S46.49,85.333,51.2,85.333z" fill="#27ae60"/>
			<path d="M298.667,153.6H332.8c4.719,0,8.533-3.823,8.533-8.533c0-4.71-3.814-8.533-8.533-8.533h-34.133     c-4.719,0-8.533,3.823-8.533,8.533C290.133,149.777,293.948,153.6,298.667,153.6z" fill="#27ae60"/>
			<path d="M401.067,85.333h-102.4c-4.719,0-8.533,3.823-8.533,8.533c0,4.71,3.814,8.533,8.533,8.533h102.4     c4.719,0,8.533-3.823,8.533-8.533C409.6,89.156,405.786,85.333,401.067,85.333z" fill="#27ae60"/>
			<path d="M469.325,0H179.2c-3.447,0-6.562,2.082-7.885,5.265c-1.323,3.191-0.589,6.861,1.852,9.301l68.275,68.267     c3.337,3.337,8.73,3.337,12.066,0s3.337-8.73,0-12.066l-53.7-53.7h269.517c14.114,0,25.609,11.486,25.609,25.6v153.6     c0,14.114-11.494,25.6-25.609,25.6h-204.8c-14.114,0-25.591-11.486-25.591-25.6V102.4c0-4.71-3.823-8.533-8.533-8.533     s-8.533,3.823-8.533,8.533v93.867c0,23.526,19.14,42.667,42.658,42.667h204.8c23.526,0,42.675-19.14,42.675-42.667v-153.6     C512,19.14,492.851,0,469.325,0z" fill="#27ae60"/>
			<path d="M358.4,145.067c0,4.71,3.814,8.533,8.533,8.533H435.2c4.719,0,8.533-3.823,8.533-8.533c0-4.71-3.814-8.533-8.533-8.533     h-68.267C362.214,136.533,358.4,140.356,358.4,145.067z" fill="#27ae60"/>
			<path d="M460.8,341.333h-8.533c-4.719,0-8.533,3.823-8.533,8.533s3.814,8.533,8.533,8.533h8.533c4.719,0,8.533-3.823,8.533-8.533     S465.519,341.333,460.8,341.333z" fill="#27ae60"/>
			<path d="M418.133,341.333H409.6c-4.719,0-8.533,3.823-8.533,8.533s3.814,8.533,8.533,8.533h8.533     c4.719,0,8.533-3.823,8.533-8.533S422.852,341.333,418.133,341.333z" fill="#27ae60"/>
			<path d="M145.067,426.667h68.267c4.71,0,8.533-3.823,8.533-8.533s-3.823-8.533-8.533-8.533h-68.267     c-4.71,0-8.533,3.823-8.533,8.533S140.356,426.667,145.067,426.667z" fill="#27ae60"/>
			<path d="M503.467,326.562v-2.295c0-28.237-22.963-51.2-51.2-51.2h-34.133c-28.237,0-51.2,22.963-51.2,51.2v2.295     c-5.103,2.953-8.533,8.465-8.533,14.771V358.4c0,6.434,3.584,12.058,8.858,14.959c1.63,16.401,8.764,30.839,9.105,31.522     c7.74,15.471,19.43,38.852,58.837,38.852s51.098-23.381,58.829-38.852c0.35-0.683,7.484-15.121,9.114-31.522     c5.274-2.901,8.858-8.525,8.858-14.959v-17.067C512,335.027,508.57,329.515,503.467,326.562z M494.933,358.4     c-4.719,0-8.533,3.823-8.533,8.533c0,14.763-7.561,30.174-7.637,30.319c-8.875,17.766-16.708,29.414-43.563,29.414     c-26.854,0-34.688-11.648-43.563-29.406c-0.077-0.154-7.637-15.565-7.637-30.327c0-4.71-3.814-8.533-8.533-8.533v-17.067     c4.719,0,8.533-3.823,8.533-8.533v-8.533c0-18.825,15.309-34.133,34.133-34.133h34.133c18.825,0,34.133,15.309,34.133,34.133     v8.533c0,4.71,3.814,8.533,8.533,8.533V358.4z" fill="#27ae60"/>
		</g>
	</g>
</g>
<g>
</g>
<g>
</g>
<g>
</g>
<g>
</g>
<g>
</g>
<g>
</g>
<g>
</g>
<g>
</g>
<g>
</g>
<g>
</g>
<g>
</g>
<g>
</g>
<g>
</g>
<g>
</g>
<g>
</g>
</svg>
