<?xml version="1.0" encoding="iso-8859-1"?>
<!-- Generator: Adobe Illustrator 19.0.0, SVG Export Plug-In . SVG Version: 6.00 Build 0)  -->
<svg xmlns="http://www.w3.org/2000/svg" xmlns:xlink="http://www.w3.org/1999/xlink" version="1.1" id="Layer_1" x="0px" y="0px" viewBox="0 0 512.002 512.002" style="enable-background:new 0 0 512.002 512.002;" xml:space="preserve" width="512px" height="512px">
<g>
	<g>
		<g>
			<path d="M366.934,128.001c0-4.71-3.814-8.533-8.533-8.533c-2.091,0-51.2-0.683-51.2-59.733c0-4.71-3.814-8.533-8.533-8.533     s-8.533,3.823-8.533,8.533c0,75.921,67.584,76.8,68.267,76.8C363.12,136.534,366.934,132.711,366.934,128.001z" fill="#27ae60"/>
			<path d="M256.001,196.268c0-14.114-11.486-25.6-25.6-25.6h-34.133c-11.46,0-21.069,7.62-24.329,18.022l-21.751-16.316     c-3.772-2.825-9.114-2.048-11.947,1.707c-2.825,3.772-2.065,9.122,1.707,11.947l31.189,23.39     c2.278,16.623,16.418,29.517,33.664,29.517h17.067c18.825,0,34.133-15.309,34.133-34.133c0,18.825,15.309,34.133,34.133,34.133     h17.067c17.237,0,31.394-12.894,33.664-29.517l31.189-23.39c3.772-2.825,4.54-8.175,1.707-11.947     c-2.825-3.772-8.175-4.548-11.947-1.707l-21.751,16.316c-3.251-10.402-12.86-18.022-24.329-18.022h-34.133     C267.487,170.668,256.001,182.153,256.001,196.268z M238.934,204.801c0,9.412-7.654,17.067-17.067,17.067h-17.067     c-9.412,0-17.067-7.654-17.067-17.067v-8.533c0-4.702,3.831-8.533,8.533-8.533h34.133c4.702,0,8.533,3.831,8.533,8.533V204.801z      M324.268,196.268v8.533c0,9.412-7.654,17.067-17.067,17.067h-17.067c-9.412,0-17.067-7.654-17.067-17.067v-8.533     c0-4.702,3.823-8.533,8.533-8.533h34.133C320.445,187.734,324.268,191.566,324.268,196.268z" fill="#27ae60"/>
			<path d="M298.659,307.226c0.009-4.702-3.797-8.533-8.499-8.559c-0.162,0-15.42-0.171-30.345-7.629     c-2.398-1.203-5.231-1.203-7.629,0c-14.925,7.458-30.191,7.629-30.319,7.629c-4.71,0-8.533,3.823-8.533,8.533     s3.823,8.533,8.533,8.533c0.725,0,16.845-0.094,34.133-7.646c17.28,7.552,33.408,7.646,34.133,7.646     C294.836,315.734,298.642,311.928,298.659,307.226z" fill="#27ae60"/>
			<path d="M120.986,237.953c4.378,18.611,18.91,76.877,34.048,99.584c10.974,16.452,36.668,54.997,100.966,54.997     s89.993-38.545,100.966-54.997c15.138-22.707,29.67-80.973,34.048-99.584c10.718-3.055,18.586-12.937,18.586-24.619v-34.133     c0-11.127-7.134-20.617-17.067-24.141v-44.126c0-1.109-1.562-110.933-136.533-110.933c-151.842,0-153.6,126.72-153.6,128     c0,4.702,3.806,8.516,8.516,8.525h0.017c4.693,0,8.516-3.806,8.533-8.499c0.017-4.54,2.048-110.959,136.533-110.959     c117.581,0,119.441,90.061,119.467,93.867v51.2c0,4.71,3.814,8.533,8.533,8.533c4.71,0,8.533,3.831,8.533,8.533v34.133     c0,4.702-3.823,8.533-8.533,8.533c-4.002,0-7.458,2.782-8.337,6.682c-0.162,0.751-16.896,75.52-32.896,99.516     c-10.257,15.386-31.599,47.403-86.767,47.403s-76.51-32.017-86.767-47.403c-15.992-23.979-32.734-98.765-32.905-99.516     c-0.87-3.9-4.326-6.682-8.329-6.682c-4.702,0-8.533-3.831-8.533-8.533v-34.133c0-4.702,3.831-8.533,8.533-8.533     c1.323,0,2.637-0.307,3.814-0.896c2.978-1.493,72.986-37.333,72.986-110.037c0-4.71-3.823-8.533-8.533-8.533     s-8.533,3.823-8.533,8.533c0,56.678-52.523,88.636-62.08,93.978c-13.022,1.186-23.253,12.169-23.253,25.489v34.133     C102.401,225.016,110.269,234.898,120.986,237.953z" fill="#27ae60"/>
			<path d="M196.097,416.462c-0.794-3.994-4.292-6.861-8.363-6.861c-140.399,0-168.892,27.409-178.944,57.66l-8.533,34.133     c-1.143,4.582,1.638,9.207,6.204,10.351c0.7,0.179,1.391,0.256,2.082,0.256c3.823,0,7.296-2.586,8.269-6.46l8.354-33.51     c7.339-22.025,31.718-44.527,155.58-45.338l15.693,78.447c0.913,4.617,5.393,7.603,10.035,6.699     c4.625-0.93,7.62-5.427,6.69-10.044L196.097,416.462z" fill="#27ae60"/>
			<path d="M511.745,501.394l-8.721-34.756c-7.117-21.342-39.689-57.216-178.782-56.678c-4.062,0.009-7.544,2.867-8.337,6.852     l-17.067,84.975c-0.93,4.625,2.065,9.122,6.682,10.052c4.591,0.896,9.114-2.074,10.044-6.69l15.693-78.114     c103.714,0.674,148.412,23.484,155.401,44.373l8.533,34.133c0.973,3.874,4.446,6.468,8.269,6.46c0.683,0,1.382-0.077,2.074-0.256     C510.106,510.601,512.888,505.976,511.745,501.394z" fill="#27ae60"/>
			<path d="M256.257,426.668h-0.085c-4.71,0-8.491,3.823-8.491,8.533s3.866,8.533,8.576,8.533c4.71,0,8.533-3.823,8.533-8.533     S260.967,426.668,256.257,426.668z" fill="#27ae60"/>
			<path d="M256.257,494.934h-0.085c-4.71,0-8.491,3.823-8.491,8.533s3.866,8.533,8.576,8.533c4.71,0,8.533-3.823,8.533-8.533     S260.967,494.934,256.257,494.934z" fill="#27ae60"/>
			<path d="M247.468,324.268c-4.71,0-8.533,3.823-8.533,8.533c0,4.71,3.823,8.533,8.533,8.533h17.067     c4.719,0,8.533-3.823,8.533-8.533c0-4.71-3.814-8.533-8.533-8.533H247.468z" fill="#27ae60"/>
			<path d="M256.257,460.801h-0.085c-4.71,0-8.491,3.823-8.491,8.533c0,4.71,3.866,8.533,8.576,8.533     c4.71,0,8.533-3.823,8.533-8.533C264.79,464.624,260.967,460.801,256.257,460.801z" fill="#27ae60"/>
		</g>
	</g>
</g>
<g>
</g>
<g>
</g>
<g>
</g>
<g>
</g>
<g>
</g>
<g>
</g>
<g>
</g>
<g>
</g>
<g>
</g>
<g>
</g>
<g>
</g>
<g>
</g>
<g>
</g>
<g>
</g>
<g>
</g>
</svg>
