<?xml version="1.0" encoding="iso-8859-1"?>
<!-- Generator: Adobe Illustrator 18.0.0, SVG Export Plug-In . SVG Version: 6.00 Build 0)  -->
<!DOCTYPE svg PUBLIC "-//W3C//DTD SVG 1.1//EN" "http://www.w3.org/Graphics/SVG/1.1/DTD/svg11.dtd">
<svg xmlns="http://www.w3.org/2000/svg" xmlns:xlink="http://www.w3.org/1999/xlink" version="1.1" id="Capa_1" x="0px" y="0px" viewBox="0 0 414.284 414.284" style="enable-background:new 0 0 414.284 414.284;" xml:space="preserve" width="512px" height="512px">
<g>
	<path d="M371.206,49.537H351.44V29.771c0-2.761-2.238-5-5-5h-19.76V5c0-2.761-2.238-5-5-5H43.077c-2.762,0-5,2.239-5,5v354.754   c0,2.761,2.238,5,5,5h19.771v19.764c0,2.761,2.238,5,5,5h19.766v19.766c0,2.761,2.238,5,5,5h278.592c2.762,0,5-2.239,5-5V54.537   C376.206,51.776,373.968,49.537,371.206,49.537z M48.077,10H316.68v344.754H48.077V10z M72.849,364.754H321.68c2.762,0,5-2.239,5-5   V34.771h14.76v344.747H72.849V364.754z M366.206,404.284H97.615v-14.766H346.44c2.762,0,5-2.239,5-5V59.537h14.767V404.284z" fill="#27ae60"/>
	<path d="M137.181,117.328h90.396c2.762,0,5-2.239,5-5s-2.238-5-5-5h-90.396c-2.762,0-5,2.239-5,5S134.419,117.328,137.181,117.328z   " fill="#27ae60"/>
	<path d="M137.181,141.269h90.396c2.762,0,5-2.239,5-5s-2.238-5-5-5h-90.396c-2.762,0-5,2.239-5,5S134.419,141.269,137.181,141.269z   " fill="#27ae60"/>
	<path d="M137.181,165.209h90.396c2.762,0,5-2.239,5-5s-2.238-5-5-5h-90.396c-2.762,0-5,2.239-5,5S134.419,165.209,137.181,165.209z   " fill="#27ae60"/>
	<path d="M137.181,189.149h90.396c2.762,0,5-2.239,5-5s-2.238-5-5-5h-90.396c-2.762,0-5,2.239-5,5S134.419,189.149,137.181,189.149z   " fill="#27ae60"/>
	<path d="M96.892,229.439h170.974c2.762,0,5-2.239,5-5v-15.655c0-2.761-2.238-5-5-5s-5,2.239-5,5v10.655H101.892v-142.4h160.974   v115.744c0,2.761,2.238,5,5,5s5-2.239,5-5V72.039c0-2.761-2.238-5-5-5H96.892c-2.762,0-5,2.239-5,5v152.4   C91.892,227.2,94.13,229.439,96.892,229.439z" fill="#27ae60"/>
	<path d="M114.892,125.284c-2.762,0-5,2.239-5,5v76.155c0,2.761,2.238,5,5,5h134.974c2.762,0,5-2.239,5-5v-116.4   c0-2.761-2.238-5-5-5H114.892c-2.762,0-5,2.239-5,5v22.745c0,2.761,2.238,5,5,5s5-2.239,5-5V95.039h124.974v106.4H119.892v-71.155   C119.892,127.522,117.654,125.284,114.892,125.284z" fill="#27ae60"/>
	<path d="M208.239,349.818c2.762,0,5-2.239,5-5s-2.238-5-5-5H57.661c-2.762,0-5,2.239-5,5s2.238,5,5,5H208.239z" fill="#27ae60"/>
	<path d="M157.734,25.284H308.31c2.762,0,5-2.239,5-5s-2.238-5-5-5H157.734c-2.762,0-5,2.239-5,5S154.972,25.284,157.734,25.284z" fill="#27ae60"/>
	<path d="M308.31,31.284h-34.92c-2.762,0-5,2.239-5,5s2.238,5,5,5h34.92c2.762,0,5-2.239,5-5S311.072,31.284,308.31,31.284z" fill="#27ae60"/>
	<path d="M252.765,32.751c-0.931,0.93-1.46,2.22-1.46,3.53c0,1.32,0.529,2.61,1.46,3.54c0.93,0.93,2.22,1.46,3.54,1.46   c1.31,0,2.6-0.53,3.529-1.46c0.931-0.93,1.471-2.22,1.471-3.54c0-1.31-0.54-2.6-1.471-3.53c-0.93-0.93-2.22-1.47-3.529-1.47   C254.985,31.281,253.695,31.821,252.765,32.751z" fill="#27ae60"/>
	<path d="M57.661,336.239h35.168c2.762,0,5-2.239,5-5s-2.238-5-5-5H57.661c-2.762,0-5,2.239-5,5S54.9,336.239,57.661,336.239z" fill="#27ae60"/>
</g>
<g>
</g>
<g>
</g>
<g>
</g>
<g>
</g>
<g>
</g>
<g>
</g>
<g>
</g>
<g>
</g>
<g>
</g>
<g>
</g>
<g>
</g>
<g>
</g>
<g>
</g>
<g>
</g>
<g>
</g>
</svg>
