<?xml version="1.0" encoding="iso-8859-1"?>
<!-- Generator: Adobe Illustrator 19.0.0, SVG Export Plug-In . SVG Version: 6.00 Build 0)  -->
<svg xmlns="http://www.w3.org/2000/svg" xmlns:xlink="http://www.w3.org/1999/xlink" version="1.1" id="Capa_1" x="0px" y="0px" viewBox="0 0 512 512" style="enable-background:new 0 0 512 512;" xml:space="preserve" width="512px" height="512px">
<g>
	<g>
		<path d="M494.327,117.879c-9.913-0.015-24.835,0.028-33.805,0.06v-37.45c0-9.764-7.944-17.708-17.708-17.708H101.391    c-4.192,0-7.589,3.398-7.589,7.589s3.397,7.589,7.589,7.589h341.422c1.395,0,2.53,1.135,2.53,2.53v295.836    c0,1.394-1.134,2.53-2.53,2.53H17.708c-1.395,0-2.53-1.135-2.53-2.53V80.488c0-1.394,1.134-2.53,2.53-2.53h49.5    c4.192,0,7.589-3.398,7.589-7.589s-3.397-7.589-7.589-7.589h-49.5C7.944,62.78,0,70.725,0,80.488v295.836    c0,9.764,7.944,17.708,17.708,17.708h33.77v37.479c0,9.764,7.944,17.708,17.708,17.708h425.105    c9.764,0,17.708-7.944,17.708-17.708V135.587C512,125.839,504.073,117.894,494.327,117.879z M496.822,431.512    c0,1.394-1.134,2.53-2.53,2.53H69.186c-1.395,0-2.53-1.135-2.53-2.53v-37.479h376.157c9.764,0,17.708-7.944,17.708-17.708V133.117    c8.945-0.031,23.872-0.075,33.781-0.06c1.388,0.002,2.519,1.137,2.519,2.53V431.512z" fill="#27ae60"/>
	</g>
</g>
<g>
	<g>
		<path d="M411.388,104.309H195.645c-4.192,0-7.589,3.398-7.589,7.589s3.397,7.589,7.589,7.589h208.153v139.271l-72.872-72.872    c-2.965-2.964-7.769-2.964-10.733,0l-59.458,59.457l-88.138-88.138c-2.965-2.964-7.769-2.964-10.733,0L56.725,262.346V119.488    H167.23c4.192,0,7.589-3.398,7.589-7.589s-3.397-7.589-7.589-7.589H49.136c-4.192,0-7.589,3.398-7.589,7.589v233.017    c0,4.191,3.397,7.589,7.589,7.589h362.252c4.192,0,7.589-3.398,7.589-7.589V111.899    C418.977,107.707,415.58,104.309,411.388,104.309z M325.56,201.986l15.394,15.394l-15.407,8.308l-15.39-8.3L325.56,201.986z     M298.954,228.592l22.991,12.399c1.123,0.606,2.363,0.91,3.602,0.91s2.478-0.304,3.602-0.91l23.008-12.407l40.909,40.909H284.883    l-13.415-13.414L298.954,228.592z M167.231,173.306l20.155,20.155l-20.155,10.869l-20.155-10.869L167.231,173.306z     M135.873,204.663l27.756,14.968c1.123,0.606,2.363,0.91,3.602,0.91s2.478-0.304,3.602-0.91l27.756-14.968l56.733,56.733    c0.015,0.016,0.03,0.031,0.047,0.048s0.032,0.031,0.049,0.048l8,8H71.044L135.873,204.663z M403.799,337.326H56.725V284.67    h224.999c0.005,0,0.01,0,0.015,0s0.01,0,0.015,0h122.044V337.326z" fill="#27ae60"/>
	</g>
</g>
<g>
	<g>
		<path d="M260.735,133.124c-19.377,0-35.14,15.764-35.14,35.14c0,19.376,15.763,35.14,35.14,35.14s35.14-15.764,35.14-35.14    C295.875,148.889,280.112,133.124,260.735,133.124z M260.736,188.226c-11.006,0-19.962-8.955-19.962-19.962    s8.955-19.962,19.962-19.962s19.962,8.955,19.962,19.962S271.742,188.226,260.736,188.226z" fill="#27ae60"/>
	</g>
</g>
<g>
</g>
<g>
</g>
<g>
</g>
<g>
</g>
<g>
</g>
<g>
</g>
<g>
</g>
<g>
</g>
<g>
</g>
<g>
</g>
<g>
</g>
<g>
</g>
<g>
</g>
<g>
</g>
<g>
</g>
</svg>
